<svg viewBox="0 0 1961 8" xmlns:xlink="http://www.w3.org/1999/xlink" _ngcontent-fxr-c24="" aria-hidden="true" width="1961" height="8" fill="none" xmlns="http://www.w3.org/2000/svg"><defs><pattern _ngcontent-fxr-c24="" id="a" width="91" height="8" patternUnits="userSpaceOnUse" fill="none"><g _ngcontent-fxr-c24="" clip-path="url(#clip0_2426_11367)" fill="none"><path _ngcontent-fxr-c24="" d="M114 4c-5.067 4.667-10.133 4.667-15.2 0S88.667-.667 83.6 4 73.467 8.667 68.4 4 58.267-.667 53.2 4 43.067 8.667 38 4 27.867-.667 22.8 4 12.667 8.667 7.6 4-2.533-.667-7.6 4s-10.133 4.667-15.2 0S-32.933-.667-38 4s-10.133 4.667-15.2 0-10.133-4.667-15.2 0-10.133 4.667-15.2 0-10.133-4.667-15.2 0-10.133 4.667-15.2 0-10.133-4.667-15.2 0-10.133 4.667-15.2 0-10.133-4.667-15.2 0-10.133 4.667-15.2 0-10.133-4.667-15.2 0-10.133 4.667-15.2 0-10.133-4.667-15.2 0-10.133 4.667-15.2 0-10.133-4.667-15.2 0-10.133 4.667-15.2 0-10.133-4.667-15.2 0-10.133 4.667-15.2 0-10.133-4.667-15.2 0-10.133 4.667-15.2 0-10.133-4.667-15.2 0-10.133 4.667-15.2 0-10.133-4.667-15.2 0-10.133 4.667-15.2 0-10.133-4.667-15.2 0-10.133 4.667-15.2 0" stroke="#E8E0E8" stroke-linecap="square" fill="none"></path></g></pattern></defs><pattern _ngcontent-fxr-c24="" id="a" width="91" height="8" patternUnits="userSpaceOnUse" fill="none"><g _ngcontent-fxr-c24="" clip-path="url(#clip0_2426_11367)" fill="none"><path _ngcontent-fxr-c24="" d="M114 4c-5.067 4.667-10.133 4.667-15.2 0S88.667-.667 83.6 4 73.467 8.667 68.4 4 58.267-.667 53.2 4 43.067 8.667 38 4 27.867-.667 22.8 4 12.667 8.667 7.6 4-2.533-.667-7.6 4s-10.133 4.667-15.2 0S-32.933-.667-38 4s-10.133 4.667-15.2 0-10.133-4.667-15.2 0-10.133 4.667-15.2 0-10.133-4.667-15.2 0-10.133 4.667-15.2 0-10.133-4.667-15.2 0-10.133 4.667-15.2 0-10.133-4.667-15.2 0-10.133 4.667-15.2 0-10.133-4.667-15.2 0-10.133 4.667-15.2 0-10.133-4.667-15.2 0-10.133 4.667-15.2 0-10.133-4.667-15.2 0-10.133 4.667-15.2 0-10.133-4.667-15.2 0-10.133 4.667-15.2 0-10.133-4.667-15.2 0-10.133 4.667-15.2 0-10.133-4.667-15.2 0-10.133 4.667-15.2 0-10.133-4.667-15.2 0-10.133 4.667-15.2 0-10.133-4.667-15.2 0-10.133 4.667-15.2 0" stroke="#E8E0E8" stroke-linecap="square" fill="none"></path></g></pattern><rect _ngcontent-fxr-c24="" width="100%" height="100%" fill="url(&quot;#a&quot;)"></rect></svg>